<svg width="177" height="40" viewBox="0 0 177 40" fill="none" xmlns="http://www.w3.org/2000/svg">
<g clip-path="url(#clip0_603_950)">
<path d="M45.1109 26.5338V29.2418H49.0109V30.1996H45.1109V33.3417H44.0015V25.5691H49.4864V26.5338H45.1109Z" fill="white"/>
<path d="M57.2386 32.377V33.3417H51.5952V25.5691H57.0801V26.5338H52.7046V28.9248H56.6047V29.8688H52.7046V32.377H57.2386Z" fill="white"/>
<path d="M59.5935 25.5691H60.7098V32.377H64.92V33.3417H59.5935V25.5691Z" fill="white"/>
<path d="M66.7615 25.5691H67.8709V32.377H72.081V33.3417H66.7615V25.5691Z" fill="white"/>
<path d="M75.1624 32.9124C74.5463 32.5828 74.0335 32.0891 73.6809 31.486C73.3241 30.868 73.1362 30.1669 73.1362 29.4533C73.1362 28.7396 73.3241 28.0386 73.6809 27.4205C74.0335 26.8174 74.5463 26.3237 75.1624 25.9942C75.8159 25.6547 76.5414 25.4775 77.2778 25.4775C78.0142 25.4775 78.7397 25.6547 79.3932 25.9942C80.0075 26.323 80.5199 26.8139 80.8747 27.4136C81.2229 28.037 81.4057 28.7392 81.4057 29.4533C81.4057 30.1673 81.2229 30.8695 80.8747 31.4929C80.518 32.0911 80.0061 32.5816 79.3932 32.9124C78.7397 33.2518 78.0142 33.429 77.2778 33.429C76.5414 33.429 75.8159 33.2518 75.1624 32.9124ZM78.8213 32.051C79.2812 31.8093 79.667 31.4473 79.9376 31.0037C80.1951 30.5349 80.3302 30.0088 80.3302 29.4739C80.3302 28.9391 80.1951 28.413 79.9376 27.9442C79.671 27.4904 79.2848 27.1186 78.8213 26.8693C78.3529 26.6047 77.8226 26.4691 77.2847 26.4765C76.7424 26.469 76.2076 26.6044 75.7343 26.8693C75.2795 27.1176 74.9026 27.4874 74.6456 27.9373C74.388 28.4061 74.253 28.9322 74.253 29.4671C74.253 30.0019 74.388 30.528 74.6456 30.9968C74.9026 31.4467 75.2795 31.8165 75.7343 32.0648C76.2076 32.3297 76.7424 32.4651 77.2847 32.4576C77.8226 32.465 78.3529 32.3294 78.8213 32.0648" fill="white"/>
<path d="M94.3949 25.5691L91.7903 33.3417H90.6258L88.5034 27.1333L86.3811 33.3417H85.1891L82.5913 25.5691H83.7351L85.8368 31.8878L88.028 25.5691H89.0478L91.1908 31.9222L93.3338 25.5691H94.3949Z" fill="white"/>
<path d="M96.9003 33.1607C96.4298 33.0226 95.9933 32.7879 95.6187 32.4717L96.0252 31.6103C96.3614 31.8977 96.7497 32.1176 97.169 32.2581C97.6265 32.4228 98.1092 32.5067 98.5954 32.5061C99.0966 32.5393 99.5968 32.4268 100.036 32.1823C100.185 32.091 100.308 31.9623 100.393 31.8088C100.478 31.6553 100.521 31.4824 100.518 31.3071C100.522 31.1868 100.501 31.0669 100.456 30.9553C100.411 30.8437 100.343 30.7429 100.256 30.6594C100.07 30.4861 99.8492 30.3546 99.6083 30.2736C99.3534 30.184 98.9951 30.0875 98.5265 29.9773C98.0446 29.8658 97.5704 29.7231 97.107 29.55C96.7532 29.4123 96.4385 29.1899 96.1906 28.9023C95.9135 28.5636 95.7734 28.1334 95.7978 27.6965C95.7939 27.2975 95.909 26.9064 96.1286 26.5733C96.3737 26.2153 96.7188 25.9373 97.1208 25.774C97.6452 25.5604 98.2086 25.4594 98.7746 25.4777C99.24 25.4734 99.7038 25.5337 100.153 25.6568C100.566 25.762 100.958 25.9393 101.31 26.1805L100.945 27.0694C100.619 26.8639 100.267 26.704 99.8977 26.594C99.5437 26.4917 99.1774 26.4384 98.809 26.4355C98.3136 26.3981 97.819 26.5187 97.3964 26.78C97.2488 26.8762 97.1278 27.0081 97.0447 27.1635C96.9616 27.3189 96.9191 27.4927 96.921 27.6689C96.917 27.7898 96.9389 27.9101 96.9852 28.0219C97.0316 28.1336 97.1013 28.2341 97.1897 28.3166C97.3903 28.493 97.6248 28.6267 97.8788 28.7094C98.1406 28.799 98.4989 28.8954 98.9468 28.9988C99.4151 29.1106 99.8755 29.2533 100.325 29.426C100.678 29.5613 100.993 29.7813 101.241 30.0668C101.511 30.3932 101.649 30.8086 101.627 31.2314C101.632 31.6315 101.514 32.0235 101.29 32.3545C101.037 32.7113 100.688 32.9886 100.284 33.1538C99.7526 33.3604 99.1856 33.4588 98.6161 33.4432C98.0403 33.4448 97.468 33.3541 96.921 33.1745" fill="white"/>
<path d="M110.457 25.5691V33.3417H109.348V29.8757H104.883V33.3417H103.773V25.5691H104.883V28.911H109.348V25.5691H110.457Z" fill="white"/>
<path d="M114.459 25.5691H113.349V33.3486H114.459V25.5691Z" fill="white"/>
<path d="M122.76 26.2924C123.035 26.5459 123.253 26.8534 123.403 27.1955C123.552 27.5376 123.63 27.907 123.63 28.2803C123.63 28.6537 123.552 29.0231 123.403 29.3652C123.253 29.7073 123.035 30.0147 122.76 30.2683C122.075 30.7736 121.232 31.0179 120.383 30.9573H118.461V33.307H117.351V25.5689H120.383C121.232 25.5083 122.075 25.7526 122.76 26.2579M121.975 29.5723C122.151 29.4056 122.291 29.2047 122.387 28.982C122.483 28.7593 122.532 28.5193 122.532 28.2769C122.532 28.0345 122.483 27.7945 122.387 27.5718C122.291 27.3491 122.151 27.1482 121.975 26.9815C121.504 26.6525 120.935 26.4944 120.363 26.5336H118.461V30.0202H120.349C120.922 30.0594 121.491 29.9013 121.961 29.5723" fill="white"/>
<path d="M43.9939 6.54517H46.5848V18.3074H53.8819V20.4987H43.9939V6.54517Z" fill="white"/>
<path d="M57.233 19.0723C56.1581 17.9882 55.6206 16.4378 55.6206 14.4211V6.54517H58.2115V14.3178C58.2115 17.074 59.3967 18.4521 61.7601 18.4521C64.1236 18.4521 65.2881 17.074 65.2881 14.3178V6.54517H67.8446V14.4211C67.8446 16.4378 67.3094 17.9882 66.239 19.0723C65.6403 19.6292 64.9344 20.0581 64.1643 20.333C63.3942 20.6079 62.5762 20.7228 61.7601 20.6709C60.9365 20.7267 60.1101 20.6136 59.3316 20.3388C58.5532 20.0639 57.839 19.6329 57.233 19.0723Z" fill="white"/>
<path d="M84.2741 20.4987V11.2515L79.6919 18.9069H78.5342L73.9244 11.3686V20.4987H71.4507V6.54517H73.5868L79.0993 15.7924L84.5429 6.54517H86.6789V20.4987H84.2741Z" fill="white"/>
<path d="M90.5073 6.54517H93.0982V20.4987H90.5073V6.54517Z" fill="white"/>
<path d="M109.283 6.54517V20.4987H107.147L99.4506 11.0241V20.4987H96.8804V6.54517H99.0096L106.706 15.9922V6.54517H109.283Z" fill="white"/>
<path d="M122.067 17.2739H115.086L113.708 20.4987H111.035L117.326 6.54517H119.91L126.208 20.4987H123.5L122.067 17.2739ZM121.212 15.2067L118.58 9.10847L115.968 15.2067H121.212Z" fill="white"/>
<path d="M137.081 20.497L134.228 16.4109C134.049 16.4204 133.87 16.4204 133.691 16.4109H130.542V20.4764H127.951V6.54354H133.691C134.775 6.51862 135.853 6.7229 136.853 7.14302C137.699 7.49077 138.42 8.08655 138.921 8.85189C139.405 9.64985 139.644 10.5721 139.61 11.5048C139.636 12.4664 139.369 13.4133 138.845 14.2197C138.304 15.0005 137.533 15.593 136.64 15.9148L139.892 20.497H137.081ZM136.144 9.47205C135.391 8.95552 134.484 8.71235 133.573 8.78299H130.542V14.3437H133.573C134.488 14.4078 135.397 14.152 136.144 13.6202C136.438 13.3659 136.671 13.0472 136.822 12.6887C136.974 12.3302 137.041 11.9416 137.019 11.553C137.05 11.1585 136.986 10.7622 136.834 10.3969C136.682 10.0315 136.445 9.70748 136.144 9.45138V9.47205Z" fill="white"/>
<path d="M142.519 6.54517H145.11V20.4987H142.519V6.54517Z" fill="white"/>
<path d="M157.929 17.2739H150.949L149.571 20.4987H146.904L153.181 6.54517H155.731L162.036 20.4987H159.321L157.929 17.2739ZM157.068 15.2067L154.435 9.10847L151.824 15.2067H157.068Z" fill="white"/>
<path d="M176.237 6.54517V20.4987H174.107L166.411 11.0241V20.4987H163.833V6.54517H165.97L173.673 15.9922V6.54517H176.237Z" fill="white"/>
<path d="M19.3239 -0.0012207V16.5914L17.1051 14.3726V-0.0012207H19.3239Z" fill="white"/>
<path d="M13.3333 4.86619V1.73096L-0.0275879 15.0919L13.3333 28.4528V25.3175L7.70368 19.6948L6.17396 18.1237L3.14209 15.0919L13.3333 4.86619ZM19.335 4.25981L17.1163 2.0686V5.18315L19.335 7.39504L27.0387 15.0919L24.0069 18.1237L22.4358 19.6948L19.335 22.7887L17.1163 25.0074V28.1427L19.335 25.9239L24.0069 21.259L25.571 19.6948L30.174 15.0919L19.335 4.25981Z" fill="white"/>
<path d="M11.1145 16.2778L13.3333 14.0591V10.9238L11.1145 13.1357L6.17396 18.1176L4.56845 19.6887L-0.0275879 24.2778L11.1145 35.4268L13.3333 37.6456V34.5104L11.1145 32.2916L3.10764 24.2778L6.17396 21.2529L11.1145 16.2778ZM25.5848 19.6887L17.1163 11.2339V14.3691L19.335 16.5879L22.4358 19.6887L24.0069 21.2529L27.0387 24.2778L17.1163 34.2003V37.3355L30.2084 24.2778L25.5848 19.6887Z" fill="white"/>
<path d="M13.3318 -0.0012207V14.0625L11.113 16.2813V-0.0012207H13.3318Z" fill="white"/>
<path d="M13.3318 25.3172V40.0011H11.113V23.0984L13.3318 25.3172Z" fill="white"/>
<path d="M19.324 22.7876V40.0004H17.1052V25.0064L19.324 22.7876Z" fill="white"/>
</g>
<defs>
<clipPath id="clip0_603_950">
<rect width="176.207" height="40" fill="white"/>
</clipPath>
</defs>
</svg>
